<svg width="1022" height="1022" viewBox="0 0 1022 1022" fill="none" xmlns="http://www.w3.org/2000/svg">
<circle cx="511" cy="511" r="501" fill="white" stroke="#FFC700" stroke-width="20"/>
<path d="M509.768 117.029C519.168 117.129 526.298 122.199 532.748 128.489C646.548 230.089 760.338 331.699 874.138 433.289C876.978 435.879 879.098 438.959 881.138 442.179L882.218 441.979C882.228 443.279 882.228 444.589 882.238 445.899L881.088 444.679C876.878 448.699 871.908 449.599 866.378 450.459C852.848 451.459 839.178 450.369 825.608 451.119C821.568 453.709 817.588 455.939 814.738 459.949C813.078 462.279 812.908 464.959 812.318 467.699C812.308 465.649 812.278 463.599 812.248 461.549C811.248 466.459 809.488 471.649 809.408 476.629C809.488 579.269 809.398 681.989 809.448 784.639C809.408 788.579 809.688 792.679 809.038 796.569C807.148 803.839 802.278 808.859 796.148 812.869C792.698 813.919 789.548 815.209 785.868 815.209C642.838 815.189 499.808 815.199 356.778 815.199C351.468 815.199 346.158 815.329 340.848 815.039C344.628 811.719 348.858 809.119 353.138 806.519C370.648 795.409 388.088 784.159 405.568 772.989C410.648 769.749 415.798 766.699 420.648 763.109C421.678 763.219 422.698 763.319 423.728 763.429C426.418 764.659 429.168 765.689 431.978 766.599C432.778 766.979 433.578 767.359 434.388 767.739C450.828 772.839 467.468 777.039 484.598 779.109C491.298 780.429 498.048 779.959 504.788 780.809C511.818 781.519 518.698 779.919 525.778 780.159C537.148 779.499 548.538 777.329 559.678 775.009C568.348 773.169 576.608 770.239 585.088 767.759C585.878 767.349 586.678 766.929 587.478 766.519C613.228 757.379 637.218 742.509 657.738 724.539C663.918 718.789 669.878 712.749 675.738 706.659C693.678 686.709 708.168 663.409 717.738 638.329C718.128 637.499 718.518 636.659 718.918 635.829C720.988 629.149 723.358 622.589 725.068 615.789C728.438 603.809 730.358 591.179 731.938 578.839C732.548 572.149 732.268 565.359 732.358 558.639C732.238 549.539 732.758 540.659 731.068 531.659C728.728 512.739 723.868 494.199 716.838 476.489C707.018 452.109 692.878 429.539 675.228 410.069C666.568 401.129 657.968 392.269 648.068 384.689C633.918 373.329 618.308 364.259 602.008 356.379C601.268 356.169 600.518 355.959 599.778 355.739C597.398 354.689 594.998 353.669 592.588 352.659C591.778 352.179 590.978 351.699 590.168 351.209C589.268 351.159 588.368 351.109 587.468 351.069C586.648 350.529 585.838 349.989 585.028 349.459C569.878 344.649 554.648 340.479 538.838 338.549C530.788 337.829 522.898 336.679 514.778 336.969C498.338 336.569 481.968 337.629 465.838 340.899C457.838 342.079 450.328 344.839 442.458 346.509C441.668 346.929 440.878 347.349 440.088 347.769C436.158 348.809 432.368 350.139 428.558 351.559C425.318 352.949 422.068 354.319 418.878 355.829C418.118 356.019 417.358 356.209 416.598 356.409C406.538 361.529 396.528 366.639 387.128 372.929C350.648 396.679 321.428 431.179 304.238 471.189C301.918 476.569 299.938 482.139 297.768 487.579C295.428 495.369 293.118 503.159 291.308 511.099C289.668 517.899 289.038 524.869 287.478 531.699C287.338 535.729 287.338 539.839 286.868 543.849C285.968 550.299 286.338 557.109 286.278 563.639C286.248 647.479 286.328 731.319 286.238 815.159C270.418 815.269 254.598 815.129 238.778 815.229C234.188 815.209 230.028 815.589 225.658 813.849C216.148 810.449 208.878 800.929 209.208 790.669C209.278 687.669 209.178 584.639 209.258 481.639C209.498 474.379 208.878 467.039 204.698 460.849C200.448 455.089 194.168 450.349 186.758 450.109C177.438 449.949 168.098 450.099 158.778 450.089C152.758 450.199 145.898 450.089 140.418 447.269C139.858 444.359 140.008 441.199 140.048 438.239C152.828 426.219 166.088 414.719 179.188 403.049C186.088 396.219 193.858 390.419 200.838 383.679C210.168 374.959 220.128 366.989 229.328 358.139C234.468 353.259 240.158 349.089 245.258 344.149C254.958 334.799 265.628 326.439 275.318 317.109C280.998 311.669 287.328 307.059 292.938 301.529C300.888 293.849 309.708 287.189 317.388 279.219C337.228 261.399 357.258 243.769 377.058 225.899C390.598 214.139 404.308 202.479 417.418 190.229C422.148 186.029 427.178 182.109 431.718 177.729C440.198 169.479 449.598 162.169 458.238 154.059C462.118 150.249 466.218 146.709 470.358 143.199C478.508 136.489 486.208 127.979 494.848 121.759C499.248 118.609 504.308 116.739 509.768 117.029Z" fill="#0052CC"/>
<path d="M448.113 491.036C486.535 491.057 525.02 491.067 563.442 491.036C569.354 491.162 574.528 490.217 579.827 493.471C585.615 496.452 588.326 501.553 590.882 507.294C591.059 547.902 590.861 588.522 590.976 629.13C590.924 633.853 591.443 638.482 589.438 642.869C587.526 647.561 584.108 650.416 580.565 653.785C579.651 653.806 578.736 653.827 577.822 653.837C576.991 654.52 576.16 655.202 575.328 655.884C531.14 656 486.94 656.094 442.762 655.832C438.388 653.439 434.263 651.707 431.385 647.361C427.572 641.851 426.99 635.68 427 629.13C427.146 589.991 426.875 550.841 427.135 511.702C427.468 509.834 427.769 507.966 428.039 506.076C429.961 502.34 431.676 498.194 435.156 495.643C438.99 492.852 443.292 490.899 448.113 491.036Z" fill="#0052CC"/>
<path d="M501.319 511.499C512.357 510.039 523.441 511.851 533.714 516.043C535.876 517.097 538.039 518.17 540.202 519.234C546.834 523.354 552.979 528.024 557.782 534.253C564.64 542.492 568.803 552.283 571.01 562.722C571.362 566.382 572.038 569.88 571.993 573.567C572.083 577.533 571.335 581.338 571.001 585.268C570.154 587.937 569.605 590.677 568.839 593.373C567.712 596.411 566.46 599.377 565.171 602.351C561.206 609.545 556.394 616.126 550.069 621.427C542.752 627.9 534.056 632.173 524.712 634.841C520.314 635.842 515.854 636.193 511.393 636.843C507.843 637.374 504.86 636.41 501.328 636.148C482.26 634.093 465.058 622.527 455.209 606.183C451.857 600.801 449.839 594.932 447.91 588.928C446.856 583.691 446.532 578.859 446.712 573.522C446.469 572.701 446.234 571.872 446 571.052C446.829 567.112 447.262 563.083 447.865 559.107C450.082 551.778 452.803 544.737 457.237 538.427C465.148 526.599 477.025 518.296 490.415 513.762C494.065 512.96 497.597 511.959 501.319 511.499Z" fill="#FFC700"/>
</svg>
